<svg width="618" height="475" viewBox="0 0 618 475" fill="none" xmlns="http://www.w3.org/2000/svg">
<g clip-path="url(#clip0_18_78)">
<path d="M321.301 328.926C320.04 328.709 318.842 328.219 317.791 327.49C316.74 326.761 315.862 325.811 315.218 324.706C314.575 323.601 314.182 322.368 314.066 321.095C313.951 319.822 314.116 318.539 314.551 317.337L276.144 250.96L294.297 245.251L326.375 312.217C328.348 313.08 329.936 314.637 330.837 316.592C331.738 318.546 331.891 320.764 331.265 322.823C330.64 324.883 329.28 326.642 327.443 327.766C325.607 328.891 323.421 329.303 321.301 328.926L321.301 328.926Z" fill="#FFB8B8"/>
<path d="M277.496 261.716C276.944 261.614 276.423 261.385 275.974 261.048C275.525 260.711 275.16 260.275 274.907 259.773L264.773 239.807C264.387 239.045 264.279 238.173 264.468 237.341C264.657 236.508 265.131 235.768 265.808 235.247L276.654 226.911C277.345 226.374 278.206 226.104 279.08 226.15C279.954 226.195 280.782 226.553 281.414 227.158L296.456 241.439C296.823 241.788 297.115 242.21 297.311 242.677C297.507 243.144 297.604 243.647 297.596 244.154C297.588 244.66 297.475 245.16 297.263 245.621C297.052 246.081 296.748 246.493 296.369 246.83L280.615 260.852C280.197 261.226 279.698 261.499 279.157 261.649C278.616 261.799 278.048 261.822 277.496 261.716H277.496Z" fill="#D6EFC7"/>
<path d="M618 172.428C618 121.307 576.527 0 525.367 0C474.208 0 432.735 121.307 432.735 172.428C432.731 184.586 435.125 196.625 439.778 207.859C444.432 219.092 451.255 229.299 459.857 237.897C468.459 246.495 478.672 253.316 489.912 257.969C501.153 262.622 513.2 265.017 525.367 265.017C537.534 265.017 549.582 262.622 560.822 257.969C572.063 253.316 582.276 246.495 590.878 237.897C599.48 229.299 606.303 219.092 610.956 207.859C615.61 196.625 618.003 184.586 618 172.428Z" fill="#D6EFC7"/>
<path d="M525.368 453.945C525.57 453.945 525.763 453.865 525.906 453.722C526.049 453.58 526.129 453.386 526.129 453.184V77.736C526.129 77.5341 526.049 77.3405 525.906 77.1978C525.763 77.055 525.57 76.9749 525.368 76.9749C525.166 76.9749 524.972 77.055 524.829 77.1978C524.686 77.3405 524.606 77.5341 524.606 77.736V453.184C524.606 453.386 524.686 453.58 524.829 453.722C524.972 453.865 525.166 453.945 525.368 453.945Z" fill="#3F3D56"/>
<path d="M525.368 139.345C525.468 139.346 525.567 139.326 525.659 139.288C525.752 139.249 525.836 139.193 525.906 139.122L562.57 102.486C562.712 102.343 562.791 102.15 562.79 101.949C562.789 101.748 562.709 101.555 562.567 101.413C562.425 101.271 562.232 101.191 562.03 101.19C561.829 101.19 561.636 101.269 561.493 101.41L524.829 138.046C524.722 138.153 524.65 138.288 524.621 138.436C524.591 138.583 524.606 138.736 524.664 138.876C524.722 139.015 524.819 139.133 524.944 139.217C525.07 139.301 525.217 139.345 525.368 139.345V139.345Z" fill="#3F3D56"/>
<path d="M525.368 202.77C525.518 202.77 525.666 202.725 525.791 202.641C525.916 202.558 526.014 202.439 526.071 202.3C526.129 202.161 526.144 202.008 526.115 201.86C526.085 201.712 526.013 201.577 525.906 201.47L464.506 140.116C464.363 139.975 464.17 139.896 463.969 139.897C463.768 139.898 463.575 139.978 463.433 140.12C463.29 140.262 463.21 140.454 463.209 140.655C463.209 140.856 463.288 141.049 463.429 141.193L524.829 202.547C524.9 202.617 524.984 202.674 525.076 202.712C525.169 202.75 525.268 202.77 525.368 202.77Z" fill="#3F3D56"/>
<path d="M580.89 474.645C580.758 474.747 580.618 474.839 580.485 474.939H466.921C464.696 465.93 463.91 456.911 467.234 449.079C471.97 437.919 485.986 430.952 497.128 435.745C499.768 436.911 502.068 438.729 503.811 441.028C508.166 433.24 515.977 427.367 524.993 427.374C536.289 427.382 545.68 436.612 548.745 447.274C553.681 438.95 563.429 433.132 572.957 435.635C588.894 439.821 593.928 464.576 580.89 474.645Z" fill="#F2F2F2"/>
<path d="M133.218 298.58C133.218 261.846 103.396 174.677 66.6088 174.677C29.8218 174.677 0 261.846 0 298.58C0.0133514 316.224 7.03694 333.14 19.5271 345.612C32.0172 358.083 48.9518 365.089 66.6088 365.089C84.2659 365.089 101.2 358.083 113.691 345.612C126.181 333.14 133.204 316.224 133.218 298.58Z" fill="#E6E6E6"/>
<path d="M66.6087 460.4C66.6806 460.4 66.7518 460.386 66.8183 460.359C66.8847 460.331 66.9451 460.291 66.9959 460.24C67.0468 460.189 67.0872 460.129 67.1147 460.063C67.1422 459.996 67.1564 459.925 67.1565 459.853V230.536C67.1559 230.392 67.098 230.253 66.9953 230.151C66.8927 230.048 66.7536 229.991 66.6087 229.991C66.4638 229.991 66.3248 230.048 66.2222 230.151C66.1195 230.253 66.0616 230.392 66.061 230.536V459.853C66.0611 459.925 66.0752 459.996 66.1028 460.063C66.1303 460.129 66.1707 460.189 66.2215 460.24C66.2724 460.291 66.3328 460.331 66.3992 460.359C66.4656 460.386 66.5368 460.4 66.6087 460.4Z" fill="#3F3D56"/>
<path d="M66.6086 274.808C66.6805 274.808 66.7518 274.794 66.8183 274.766C66.8847 274.739 66.9451 274.698 66.9959 274.647L93.3596 248.322C93.4623 248.219 93.5199 248.08 93.5198 247.935C93.5197 247.79 93.462 247.65 93.3593 247.548C93.2565 247.445 93.1173 247.388 92.9721 247.388C92.8268 247.388 92.6876 247.446 92.585 247.548L66.2213 273.874C66.1447 273.951 66.0926 274.048 66.0715 274.154C66.0504 274.26 66.0613 274.37 66.1028 274.47C66.1442 274.57 66.2144 274.656 66.3045 274.716C66.3945 274.776 66.5004 274.808 66.6086 274.808L66.6086 274.808Z" fill="#3F3D56"/>
<path d="M66.6089 320.383C66.7172 320.383 66.823 320.351 66.9131 320.291C67.0031 320.231 67.0733 320.145 67.1148 320.045C67.1562 319.945 67.1671 319.835 67.146 319.729C67.1249 319.623 67.0728 319.526 66.9962 319.449L22.8455 275.361C22.7429 275.259 22.6036 275.201 22.4584 275.201C22.3132 275.201 22.1739 275.259 22.0712 275.361C21.9685 275.464 21.9107 275.603 21.9106 275.748C21.9106 275.893 21.9682 276.032 22.0708 276.135L66.2216 320.223C66.2724 320.273 66.3328 320.314 66.3992 320.341C66.4657 320.369 66.537 320.383 66.6089 320.383Z" fill="#3F3D56"/>
<path d="M106.234 474.727C106.138 474.801 106.038 474.867 105.942 474.939H24.2825C22.6824 468.465 22.1174 461.984 24.5075 456.356C27.9127 448.337 37.991 443.331 46.0033 446.775C47.9014 447.613 49.5551 448.919 50.8087 450.571C53.9399 444.975 59.5565 440.755 66.0397 440.759C74.1621 440.765 80.9154 447.398 83.1191 455.059C86.6681 449.078 93.6779 444.897 100.529 446.696C111.989 449.703 115.609 467.492 106.234 474.727Z" fill="#F2F2F2"/>
<path d="M138.248 474.939H428.453C428.655 474.939 428.849 474.858 428.992 474.716C429.134 474.573 429.215 474.379 429.215 474.177C429.215 473.976 429.134 473.782 428.992 473.639C428.849 473.496 428.655 473.416 428.453 473.416H138.248C138.046 473.416 137.852 473.496 137.709 473.639C137.566 473.782 137.486 473.976 137.486 474.177C137.486 474.379 137.566 474.573 137.709 474.716C137.852 474.858 138.046 474.939 138.248 474.939Z" fill="#3F3D56"/>
<path d="M275.621 266.515C275.071 266.398 274.557 266.155 274.117 265.805C273.677 265.456 273.324 265.01 273.086 264.501L263.507 244.263C263.142 243.492 263.058 242.617 263.27 241.79C263.482 240.963 263.976 240.236 264.667 239.734L275.74 231.699C276.445 231.182 277.313 230.936 278.186 231.006C279.058 231.075 279.876 231.456 280.491 232.078L295.132 246.769C295.49 247.128 295.77 247.557 295.953 248.029C296.136 248.502 296.22 249.007 296.197 249.513C296.175 250.02 296.048 250.516 295.824 250.97C295.601 251.425 295.285 251.828 294.897 252.155L278.762 265.737C278.333 266.099 277.827 266.358 277.282 266.493C276.737 266.628 276.169 266.636 275.621 266.515Z" fill="#D6EFC7"/>
<path d="M214.934 458.386L224.571 461.005L239.27 425.11L225.048 421.244L214.934 458.386Z" fill="#FFB8B8"/>
<path d="M240.721 475L210.435 466.766L213.618 455.073L232.964 460.332C235.865 461.121 238.335 463.03 239.828 465.638C241.322 468.246 241.718 471.341 240.928 474.24L240.721 475Z" fill="#2F2E41"/>
<path d="M297.317 465.734L307.303 465.733L312.055 427.241L297.314 427.242L297.317 465.734Z" fill="#FFB8B8"/>
<path d="M326.564 474.999L295.177 475L295.176 462.882L315.225 462.881C318.232 462.881 321.116 464.075 323.243 466.2C325.369 468.324 326.564 471.206 326.564 474.211L326.564 474.999Z" fill="#2F2E41"/>
<path d="M296.419 205.732C304.233 197.924 304.233 185.265 296.419 177.458C288.606 169.65 275.938 169.65 268.124 177.458C260.311 185.265 260.311 197.924 268.124 205.732C275.938 213.539 288.606 213.539 296.419 205.732Z" fill="#FFB8B8"/>
<path d="M294.296 435.122L283.113 353.408C283.03 352.801 282.753 352.238 282.325 351.8C281.896 351.363 281.338 351.075 280.733 350.98C280.128 350.884 279.508 350.986 278.965 351.27C278.423 351.554 277.986 352.005 277.72 352.556L239.659 431.439C239.272 432.232 238.613 432.859 237.802 433.208C236.991 433.556 236.082 433.602 235.24 433.337L220.572 428.647C219.664 428.36 218.904 427.73 218.454 426.891C218.004 426.052 217.899 425.071 218.162 424.156C236.003 361.214 251.408 314.386 268.597 290.434C268.664 290.341 268.734 290.253 268.808 290.166L272.62 285.722C272.964 285.32 273.391 284.998 273.871 284.777C274.352 284.556 274.875 284.442 275.403 284.443H303.468C304.202 284.44 304.919 284.659 305.526 285.069C306.133 285.48 306.602 286.064 306.872 286.745L307.603 288.571C307.662 288.718 307.712 288.868 307.752 289.02C316.926 323.912 319.304 370.251 315.238 434.851C315.178 435.782 314.766 436.654 314.086 437.292C313.406 437.931 312.508 438.287 311.576 438.288H297.928C297.042 438.285 296.188 437.964 295.521 437.382C294.854 436.8 294.419 435.998 294.296 435.122Z" fill="#2F2E41"/>
<path d="M267.241 288.775C263.197 282.309 243.904 248.906 261.222 226.284C261.533 225.883 261.733 225.409 261.803 224.907L262.49 219.646C262.553 219.154 262.715 218.681 262.968 218.254C263.22 217.827 263.556 217.456 263.956 217.163C264.356 216.869 264.812 216.661 265.295 216.549C265.778 216.437 266.279 216.425 266.767 216.513C272.787 217.607 284.126 221.049 292.43 231.798C292.826 232.316 293.076 232.93 293.154 233.577L293.612 237.241C293.67 237.723 293.851 238.181 294.138 238.573C294.426 238.964 294.809 239.274 295.252 239.474C300.548 241.877 312.4 251.241 308.078 286.195C307.975 287.065 307.562 287.869 306.914 288.46C306.267 289.051 305.429 289.39 304.552 289.414L270.462 290.49C270.423 290.49 270.385 290.491 270.347 290.491C269.726 290.491 269.116 290.333 268.572 290.033C268.029 289.733 267.571 289.3 267.241 288.775Z" fill="#D6EFC7"/>
<path d="M253.415 342.347C252.549 341.406 251.9 340.286 251.514 339.067C251.128 337.849 251.014 336.56 251.181 335.292C251.347 334.025 251.789 332.809 252.476 331.731C253.164 330.653 254.079 329.738 255.159 329.052L265.345 253.057L283.206 259.623L267.65 332.218C268.684 334.106 268.988 336.308 268.506 338.406C268.024 340.504 266.789 342.352 265.035 343.6C263.28 344.849 261.128 345.411 258.986 345.18C256.845 344.949 254.863 343.941 253.415 342.347Z" fill="#FFB8B8"/>
<path d="M259.839 262.398C259.464 261.979 259.191 261.48 259.042 260.939C258.892 260.398 258.87 259.83 258.977 259.278L263.165 237.286C263.325 236.447 263.773 235.691 264.431 235.147C265.09 234.604 265.918 234.307 266.772 234.308L280.456 234.331C281.331 234.329 282.177 234.641 282.841 235.21C283.505 235.779 283.942 236.568 284.072 237.433L287.246 257.923C287.324 258.424 287.296 258.935 287.166 259.425C287.036 259.914 286.805 260.372 286.489 260.768C286.173 261.164 285.778 261.49 285.329 261.726C284.88 261.961 284.387 262.101 283.881 262.137L262.836 263.617C262.276 263.658 261.714 263.569 261.194 263.358C260.674 263.146 260.21 262.818 259.839 262.398L259.839 262.398Z" fill="#D6EFC7"/>
<path d="M260.258 179.161C261.744 174.659 262.841 170.039 263.537 165.35C263.756 162.62 263.056 159.683 261.067 157.8C257.343 154.275 251.018 155.954 247.124 159.29C241.497 164.111 238.69 171.52 237.63 178.85C236.569 186.181 237.036 193.635 236.78 201.038C236.525 208.44 235.465 216.052 231.689 222.425C227.912 228.798 220.904 233.69 213.511 233.148C210.527 232.987 207.694 231.787 205.503 229.756C204.427 228.734 203.613 227.469 203.128 226.067C202.642 224.665 202.5 223.167 202.714 221.699C198.936 228.46 200.851 237.623 206.487 242.937C212.123 248.252 220.791 249.754 228.201 247.485C235.61 245.216 241.707 239.526 245.35 232.692C248.992 225.857 250.327 217.962 250.133 210.221C249.985 204.276 248.974 198.283 249.979 192.422C250.984 186.561 254.655 180.61 260.443 179.23L260.258 179.161Z" fill="#2F2E41"/>
<path d="M278.963 210.181C278.178 208.937 277.67 207.538 277.473 206.08C277.277 204.622 277.398 203.139 277.827 201.731C278.256 200.324 278.983 199.026 279.959 197.924C280.935 196.823 282.138 195.945 283.484 195.349C287.111 193.745 291.308 194.359 295.201 193.597C302.176 192.233 307.919 185.866 308.333 178.776C308.748 171.685 303.627 164.599 296.709 162.97C293.949 162.321 291.072 162.473 288.24 162.63C285.521 162.78 282.8 162.931 280.094 163.241C274.74 163.854 269.325 165.149 264.869 168.178C260.413 171.206 257.049 176.222 257.106 181.606C257.172 187.751 260.073 199.985 264.106 204.624C267.998 209.1 270.961 210.713 277.139 211.018L278.963 210.181Z" fill="#2F2E41"/>
<path d="M354.197 283.928H344.799V274.538C344.799 274.235 344.679 273.944 344.465 273.73C344.251 273.516 343.96 273.396 343.657 273.396C343.354 273.396 343.063 273.516 342.849 273.73C342.635 273.944 342.514 274.235 342.514 274.538V283.928H333.117C332.814 283.928 332.523 284.049 332.309 284.263C332.094 284.477 331.974 284.767 331.974 285.07C331.974 285.373 332.094 285.663 332.309 285.877C332.523 286.091 332.814 286.212 333.117 286.212H342.514V295.602C342.514 295.905 342.635 296.195 342.849 296.41C343.063 296.624 343.354 296.744 343.657 296.744C343.96 296.744 344.251 296.624 344.465 296.41C344.679 296.195 344.799 295.905 344.799 295.602V286.212H354.197C354.5 286.212 354.791 286.091 355.005 285.877C355.219 285.663 355.34 285.373 355.34 285.07C355.34 284.767 355.219 284.477 355.005 284.263C354.791 284.049 354.5 283.928 354.197 283.928Z" fill="#D6EFC7"/>
<path d="M327.538 138.555H318.14V129.164C318.14 128.861 318.02 128.571 317.806 128.357C317.591 128.142 317.301 128.022 316.998 128.022C316.695 128.022 316.404 128.142 316.19 128.357C315.976 128.571 315.855 128.861 315.855 129.164V138.555H306.457C306.154 138.555 305.864 138.675 305.65 138.889C305.435 139.103 305.315 139.393 305.315 139.696C305.315 139.999 305.435 140.289 305.65 140.503C305.864 140.718 306.154 140.838 306.457 140.838H315.855V150.228C315.855 150.531 315.976 150.822 316.19 151.036C316.404 151.25 316.695 151.37 316.998 151.37C317.301 151.37 317.591 151.25 317.806 151.036C318.02 150.822 318.14 150.531 318.14 150.228V140.838H327.538C327.841 140.838 328.132 140.718 328.346 140.503C328.56 140.289 328.681 139.999 328.681 139.696C328.681 139.393 328.56 139.103 328.346 138.889C328.132 138.675 327.841 138.555 327.538 138.555Z" fill="#D6EFC7"/>
<path d="M205.667 181.177H196.269V171.787C196.269 171.484 196.149 171.193 195.935 170.979C195.72 170.765 195.43 170.645 195.127 170.645C194.824 170.645 194.533 170.765 194.319 170.979C194.104 171.193 193.984 171.484 193.984 171.787V181.177H184.586C184.283 181.177 183.993 181.297 183.778 181.512C183.564 181.726 183.444 182.016 183.444 182.319C183.444 182.622 183.564 182.912 183.778 183.126C183.993 183.34 184.283 183.461 184.586 183.461H193.984V192.851C193.984 193.154 194.104 193.444 194.319 193.658C194.533 193.873 194.824 193.993 195.127 193.993C195.43 193.993 195.72 193.873 195.935 193.658C196.149 193.444 196.269 193.154 196.269 192.851V183.461H205.667C205.97 183.461 206.26 183.34 206.475 183.126C206.689 182.912 206.809 182.622 206.809 182.319C206.809 182.016 206.689 181.726 206.475 181.512C206.26 181.297 205.97 181.177 205.667 181.177Z" fill="#D6EFC7"/>
</g>
<defs>
<clipPath id="clip0_18_78">
<rect width="618" height="475" fill="white"/>
</clipPath>
</defs>
</svg>
